<mxfile host="app.diagrams.net" modified="2024-03-11T14:29:32.263Z" agent="Mozilla/5.0 (Windows NT 10.0; Win64; x64) AppleWebKit/537.36 (KHTML, like Gecko) Chrome/122.0.0.0 Safari/537.36" etag="HFe8vlFPf0_PNBX95Fhy" version="24.0.4" type="device">
  <diagram name="Page-1" id="K488Z_fadcI4mOK3VPjF">
    <mxGraphModel dx="1366" dy="747" grid="1" gridSize="10" guides="1" tooltips="1" connect="1" arrows="1" fold="1" page="1" pageScale="1" pageWidth="850" pageHeight="1100" math="0" shadow="0">
      <root>
        <mxCell id="0" />
        <mxCell id="1" parent="0" />
        <mxCell id="6-7Uk97slKLTTv3amJhB-2" style="edgeStyle=orthogonalEdgeStyle;rounded=0;orthogonalLoop=1;jettySize=auto;html=1;" edge="1" parent="1" source="6-7Uk97slKLTTv3amJhB-1" target="6-7Uk97slKLTTv3amJhB-3">
          <mxGeometry relative="1" as="geometry">
            <mxPoint x="320" y="300" as="targetPoint" />
          </mxGeometry>
        </mxCell>
        <mxCell id="6-7Uk97slKLTTv3amJhB-1" value="start" style="ellipse;whiteSpace=wrap;html=1;" vertex="1" parent="1">
          <mxGeometry x="260" y="120" width="120" height="80" as="geometry" />
        </mxCell>
        <mxCell id="6-7Uk97slKLTTv3amJhB-4" style="edgeStyle=orthogonalEdgeStyle;rounded=0;orthogonalLoop=1;jettySize=auto;html=1;" edge="1" parent="1" source="6-7Uk97slKLTTv3amJhB-3" target="6-7Uk97slKLTTv3amJhB-5">
          <mxGeometry relative="1" as="geometry">
            <mxPoint x="320" y="380" as="targetPoint" />
          </mxGeometry>
        </mxCell>
        <mxCell id="6-7Uk97slKLTTv3amJhB-3" value="int []arr=new int[]{12,23,34,56};" style="shape=parallelogram;perimeter=parallelogramPerimeter;whiteSpace=wrap;html=1;fixedSize=1;" vertex="1" parent="1">
          <mxGeometry x="260" y="270" width="120" height="60" as="geometry" />
        </mxCell>
        <mxCell id="6-7Uk97slKLTTv3amJhB-10" style="edgeStyle=orthogonalEdgeStyle;rounded=0;orthogonalLoop=1;jettySize=auto;html=1;" edge="1" parent="1" source="6-7Uk97slKLTTv3amJhB-5" target="6-7Uk97slKLTTv3amJhB-11">
          <mxGeometry relative="1" as="geometry">
            <mxPoint x="320" y="470" as="targetPoint" />
          </mxGeometry>
        </mxCell>
        <mxCell id="6-7Uk97slKLTTv3amJhB-5" value="int product=1;" style="rounded=0;whiteSpace=wrap;html=1;" vertex="1" parent="1">
          <mxGeometry x="260" y="350" width="120" height="60" as="geometry" />
        </mxCell>
        <mxCell id="6-7Uk97slKLTTv3amJhB-12" value="true" style="edgeStyle=orthogonalEdgeStyle;rounded=0;orthogonalLoop=1;jettySize=auto;html=1;" edge="1" parent="1" source="6-7Uk97slKLTTv3amJhB-11" target="6-7Uk97slKLTTv3amJhB-13">
          <mxGeometry relative="1" as="geometry">
            <mxPoint x="320" y="630" as="targetPoint" />
          </mxGeometry>
        </mxCell>
        <mxCell id="6-7Uk97slKLTTv3amJhB-18" value="false" style="edgeStyle=orthogonalEdgeStyle;rounded=0;orthogonalLoop=1;jettySize=auto;html=1;" edge="1" parent="1" source="6-7Uk97slKLTTv3amJhB-11" target="6-7Uk97slKLTTv3amJhB-19">
          <mxGeometry relative="1" as="geometry">
            <mxPoint x="440" y="510" as="targetPoint" />
          </mxGeometry>
        </mxCell>
        <mxCell id="6-7Uk97slKLTTv3amJhB-11" value="int i=0;i&amp;lt;arr.length;i++" style="shape=hexagon;perimeter=hexagonPerimeter2;whiteSpace=wrap;html=1;fixedSize=1;" vertex="1" parent="1">
          <mxGeometry x="260" y="470" width="120" height="80" as="geometry" />
        </mxCell>
        <mxCell id="6-7Uk97slKLTTv3amJhB-14" style="edgeStyle=orthogonalEdgeStyle;rounded=0;orthogonalLoop=1;jettySize=auto;html=1;" edge="1" parent="1" source="6-7Uk97slKLTTv3amJhB-13" target="6-7Uk97slKLTTv3amJhB-15">
          <mxGeometry relative="1" as="geometry">
            <mxPoint x="320" y="730" as="targetPoint" />
          </mxGeometry>
        </mxCell>
        <mxCell id="6-7Uk97slKLTTv3amJhB-23" value="true" style="edgeLabel;html=1;align=center;verticalAlign=middle;resizable=0;points=[];" vertex="1" connectable="0" parent="6-7Uk97slKLTTv3amJhB-14">
          <mxGeometry x="0.3" y="-2" relative="1" as="geometry">
            <mxPoint as="offset" />
          </mxGeometry>
        </mxCell>
        <mxCell id="6-7Uk97slKLTTv3amJhB-13" value="arr[i]%2==0" style="rhombus;whiteSpace=wrap;html=1;" vertex="1" parent="1">
          <mxGeometry x="280" y="590" width="90" height="80" as="geometry" />
        </mxCell>
        <mxCell id="6-7Uk97slKLTTv3amJhB-22" style="edgeStyle=orthogonalEdgeStyle;rounded=0;orthogonalLoop=1;jettySize=auto;html=1;" edge="1" parent="1" source="6-7Uk97slKLTTv3amJhB-15">
          <mxGeometry relative="1" as="geometry">
            <mxPoint x="250" y="500" as="targetPoint" />
          </mxGeometry>
        </mxCell>
        <mxCell id="6-7Uk97slKLTTv3amJhB-15" value="product*=arr[i];" style="rounded=0;whiteSpace=wrap;html=1;" vertex="1" parent="1">
          <mxGeometry x="260" y="700" width="120" height="60" as="geometry" />
        </mxCell>
        <mxCell id="6-7Uk97slKLTTv3amJhB-20" style="edgeStyle=orthogonalEdgeStyle;rounded=0;orthogonalLoop=1;jettySize=auto;html=1;" edge="1" parent="1" source="6-7Uk97slKLTTv3amJhB-19">
          <mxGeometry relative="1" as="geometry">
            <mxPoint x="500" y="620" as="targetPoint" />
          </mxGeometry>
        </mxCell>
        <mxCell id="6-7Uk97slKLTTv3amJhB-19" value="product" style="shape=document;whiteSpace=wrap;html=1;boundedLbl=1;" vertex="1" parent="1">
          <mxGeometry x="440" y="470" width="120" height="80" as="geometry" />
        </mxCell>
        <mxCell id="6-7Uk97slKLTTv3amJhB-21" value="end" style="ellipse;whiteSpace=wrap;html=1;" vertex="1" parent="1">
          <mxGeometry x="460" y="620" width="120" height="80" as="geometry" />
        </mxCell>
        <mxCell id="6-7Uk97slKLTTv3amJhB-25" style="edgeStyle=orthogonalEdgeStyle;rounded=0;orthogonalLoop=1;jettySize=auto;html=1;entryX=0.996;entryY=0.669;entryDx=0;entryDy=0;entryPerimeter=0;" edge="1" parent="1">
          <mxGeometry relative="1" as="geometry">
            <mxPoint x="325" y="596.5" as="sourcePoint" />
            <mxPoint x="379.52" y="530.02" as="targetPoint" />
          </mxGeometry>
        </mxCell>
        <mxCell id="6-7Uk97slKLTTv3amJhB-26" value="false" style="edgeLabel;html=1;align=center;verticalAlign=middle;resizable=0;points=[];" vertex="1" connectable="0" parent="6-7Uk97slKLTTv3amJhB-25">
          <mxGeometry x="0.2541" y="-2" relative="1" as="geometry">
            <mxPoint as="offset" />
          </mxGeometry>
        </mxCell>
      </root>
    </mxGraphModel>
  </diagram>
</mxfile>
